<?xml version="1.0" encoding="utf-8"?>
<!-- Generator: Adobe Illustrator 16.0.0, SVG Export Plug-In . SVG Version: 6.00 Build 0)  -->
<!DOCTYPE svg PUBLIC "-//W3C//DTD SVG 1.1//EN" "http://www.w3.org/Graphics/SVG/1.1/DTD/svg11.dtd">
<svg version="1.1" id="Layer_1" xmlns="http://www.w3.org/2000/svg" xmlns:xlink="http://www.w3.org/1999/xlink" x="0px" y="0px"
	 width="400px" height="400px" viewBox="0 0 400 400" enable-background="new 0 0 400 400" xml:space="preserve">
<g>
	<circle fill="#327190" stroke="#282626" stroke-width="2" stroke-miterlimit="10" cx="200.655" cy="199.86" r="191.542"/>
	<g>
		<g>
			<path fill="#E8E7E7" stroke="#282626" stroke-width="2" stroke-miterlimit="10" d="M200.209,140.543
				c-43.561,0-78.78,35.218-78.78,78.778c0,43.562,0,84.343,0,84.343h157.558c0,0,0-59.936,0-84.343
				C278.986,175.762,243.769,140.543,200.209,140.543z M250.875,275.859H149.542v-56.538c0-27.803,22.861-50.665,50.667-50.665
				c27.803,0,50.666,22.862,50.666,50.665V275.859z"/>
		</g>
		<g>
			<path fill="#0E0F10" stroke="#282626" stroke-width="2" stroke-miterlimit="10" d="M253.654,161.551
				c12.975,14.21,21.007,32.747,21.007,53.447c0,24.716,0,84.339,0,84.339H121.429c0,2.78,0,4.327,0,4.327h157.558
				c0,0,0-59.936,0-84.343C278.986,196.461,269.41,176.071,253.654,161.551z"/>
		</g>
		<g opacity="0.1">
			<path fill="#0E0F10" stroke="#282626" stroke-width="2" stroke-miterlimit="10" d="M250.875,260.41H149.542v-31.511
				c-10.194,4.325-19.463,10.194-28.113,16.993c0,24.714,0,42.631,0,42.631h157.558c0,0,0-20.698,0-42.631
				c-8.649-6.799-17.918-12.668-28.111-16.993V260.41z"/>
		</g>
		<g>
			<path fill="#252525" stroke="#282626" stroke-width="2" stroke-miterlimit="10" d="M200.209,165.568
				c-29.659,0-53.756,24.096-53.756,53.753v56.229c0,1.854,1.236,3.089,3.089,3.089h101.333c1.852,0,3.09-1.235,3.09-3.089v-56.229
				C253.965,189.665,229.865,165.568,200.209,165.568z M247.783,272.769h-95.152v-53.447c0-26.258,21.317-47.575,47.578-47.575
				c26.258,0,47.574,21.317,47.574,47.575V272.769z"/>
			<path fill="#252525" stroke="#282626" stroke-width="2" stroke-miterlimit="10" d="M200.209,137.454
				c-45.106,0-81.87,36.764-81.87,81.868v84.343c0,1.853,1.236,3.089,3.089,3.089h157.558c1.855,0,3.092-1.236,3.092-3.089v-84.343
				C282.078,174.217,245.313,137.454,200.209,137.454z M275.896,300.882H124.518v-81.561c0-41.706,33.984-75.688,75.691-75.688
				c41.705,0,75.688,33.982,75.688,75.688V300.882z"/>
		</g>
		<g>
			<path fill="#6ECCDE" stroke="#282626" stroke-width="2" stroke-miterlimit="10" d="M200.209,228.899
				c-60.861,0-110.292,49.429-110.292,110.29c0,6.18,0.617,12.358,1.544,18.229c30.894,21.316,68.275,33.983,108.747,33.983
				c40.471,0,77.852-12.667,108.746-33.983c0.926-5.871,1.543-12.05,1.543-18.229C310.498,278.328,261.068,228.899,200.209,228.899z
				"/>
		</g>
		<g>
			<path fill="#5C6063" stroke="#282626" stroke-width="2" stroke-miterlimit="10" d="M200.209,305.206
				c-11.74,0-21.009,9.27-21.009,21.01c0,7.723,4.325,14.521,10.504,18.226v25.952c0,5.869,4.634,10.506,10.505,10.506
				c5.869,0,10.503-4.637,10.503-10.506v-25.952c6.18-3.705,10.503-10.194,10.503-18.226
				C221.215,314.785,211.948,305.206,200.209,305.206z"/>
		</g>
		<g opacity="0.1">
			<path fill="#0E0F10" stroke="#282626" stroke-width="2" stroke-miterlimit="10" d="M183.216,326.216
				c0,7.723,4.326,14.521,10.503,18.226v25.952c0,5.563,4.636,10.195,10.197,10.506c-1.547-1.856-2.473-4.02-2.473-6.49V348.46
				c-6.179-3.709-10.504-10.194-10.504-18.228c0-11.741,9.269-21.008,21.008-21.008c1.854,0,3.398,0.31,5.253,0.616
				c-3.708-2.78-8.034-4.635-12.979-4.635C192.485,305.206,183.216,314.785,183.216,326.216z"/>
		</g>
		<g>
			<path fill="#252525" stroke="#282626" stroke-width="2" stroke-miterlimit="10" d="M200.209,302.117
				c-13.286,0-24.099,10.812-24.099,24.099c0,8.031,4.016,15.446,10.505,19.772v24.405c0,7.415,6.178,13.594,13.594,13.594
				c7.413,0,13.593-6.179,13.593-13.594v-24.405c6.488-4.634,10.504-12.05,10.504-19.772
				C224.306,312.929,213.493,302.117,200.209,302.117z M209.167,341.662c-0.928,0.617-1.545,1.545-1.545,2.779v25.952
				c0,4.016-3.399,7.415-7.413,7.415c-4.018,0-7.416-3.399-7.416-7.415v-25.952c0-1.234-0.618-2.162-1.544-2.779
				c-5.561-3.396-8.959-8.958-8.959-15.446c0-9.888,8.033-17.92,17.919-17.92c9.885,0,17.917,8.032,17.917,17.92
				C218.126,332.704,214.728,338.574,209.167,341.662z"/>
		</g>
		<g>
			<path fill="#252525" stroke="#282626" stroke-width="2" stroke-miterlimit="10" d="M200.209,225.811
				c-62.406,0-113.381,50.977-113.381,113.379c0,5.252,0.309,10.504,1.236,15.756c2.471,1.546,4.634,3.398,7.106,4.945
				c-1.236-6.798-2.162-13.593-2.162-20.701c0-59.003,48.194-107.198,107.202-107.198c59.007,0,107.2,48.195,107.2,107.198
				c0,7.108-0.617,13.903-2.162,20.701c2.471-1.547,4.634-3.091,7.106-4.945c0.617-5.252,1.235-10.504,1.235-15.756
				C313.589,276.478,262.613,225.811,200.209,225.811z"/>
		</g>
	</g>
</g>
</svg>
